<svg width="30" height="20" viewBox="0 0 385 320" fill="none" xmlns="http://www.w3.org/2000/svg">
<path d="M270.845 91.5592H51.4163L108.363 26.7755C114.11 20.5061 113.588 10.5795 106.796 4.83261C100.527 -0.914329 90.6 -0.391874 84.8531 6.39996L4.91836 96.7836C4.91836 97.3061 4.39591 97.3061 4.39591 97.8285C3.87346 98.351 3.87346 98.351 3.35102 98.8734C2.82857 99.3959 2.82857 99.9183 2.82857 100.441C2.82857 100.963 2.30612 100.963 2.30612 101.486C2.30612 102.008 1.78367 102.531 1.78367 103.053C1.78367 103.575 1.78367 103.575 1.26122 104.098C0.738773 106.188 0.738773 108.278 1.26122 109.845C1.26122 110.367 1.26122 110.367 1.78367 110.89C1.78367 111.412 2.30612 111.935 2.30612 112.457C2.30612 112.98 2.82857 112.98 2.82857 113.502C2.82857 114.024 3.35102 114.547 3.35102 115.069C3.35102 115.592 3.87346 115.592 4.39591 116.114C4.39591 116.637 4.91836 116.637 4.91836 117.159L84.3306 208.065C87.4653 211.722 91.6449 213.29 96.3469 213.29C100.004 213.29 103.661 212.245 106.796 209.633C113.065 203.886 114.11 193.959 108.363 187.69L51.4163 122.906H270.845C316.298 122.906 353.392 160 353.392 205.453C353.392 250.906 316.298 288 270.845 288H37.8326C28.951 288 22.1592 294.792 22.1592 303.673C22.1592 312.555 28.951 319.347 37.8326 319.347H270.845C333.539 319.347 384.739 268.147 384.739 205.453C384.739 142.759 333.539 91.5592 270.845 91.5592Z" fill="url(#paint0_linear)"/>
<defs>
<linearGradient id="paint0_linear" x1="193" y1="0.653543" x2="193" y2="319.346" gradientUnits="userSpaceOnUse">
<stop stop-color="#0026EF"/>
<stop offset="1" stop-color="#00ACEA"/>
</linearGradient>
</defs>
</svg>
