<svg width="18" height="16" viewBox="0 0 18 16" fill="none" xmlns="http://www.w3.org/2000/svg">
<path d="M2.17159 2.17159C1.80015 2.54302 1.50551 2.98398 1.30449 3.46928C1.10346 3.95458 1 4.47473 1 5.00002C1 5.52531 1.10346 6.04546 1.30449 6.53076C1.50551 7.01606 1.80015 7.45702 2.17159 7.82845L9.00001 14.6569L15.8284 7.82845C16.5786 7.07831 17 6.06089 17 5.00002C17 3.93915 16.5786 2.92173 15.8284 2.17159C15.0783 1.42144 14.0609 1.00001 13 1.00001C11.9391 1.00001 10.9217 1.42144 10.1716 2.17159L9.00001 3.34314L7.82845 2.17159C7.45702 1.80015 7.01606 1.50551 6.53076 1.30449C6.04546 1.10346 5.52531 1 5.00002 1C4.47473 1 3.95458 1.10346 3.46928 1.30449C2.98398 1.50551 2.54302 1.80015 2.17159 2.17159Z" stroke="#3366FF" stroke-width="2" stroke-linecap="round" stroke-linejoin="round"/>
</svg>
