<svg width="22" height="21" viewBox="0 0 22 21" fill="none" xmlns="http://www.w3.org/2000/svg">
<path d="M10.0491 1.927C10.3491 1.006 11.6521 1.006 11.9511 1.927L13.4701 6.601C13.5355 6.80149 13.6625 6.97618 13.8332 7.10011C14.0038 7.22403 14.2092 7.29085 14.4201 7.291H19.3351C20.3041 7.291 20.7061 8.531 19.9231 9.101L15.9471 11.989C15.7763 12.1132 15.6492 12.2882 15.584 12.489C15.5188 12.6899 15.5188 12.9062 15.5841 13.107L17.1021 17.781C17.4021 18.703 16.3471 19.469 15.5641 18.899L11.5881 16.011C11.4172 15.8868 11.2114 15.8199 11.0001 15.8199C10.7888 15.8199 10.583 15.8868 10.4121 16.011L6.4361 18.899C5.6531 19.469 4.5981 18.702 4.8981 17.781L6.4161 13.107C6.48137 12.9062 6.48141 12.6899 6.4162 12.489C6.351 12.2882 6.22389 12.1132 6.0531 11.989L2.0771 9.101C1.2931 8.531 1.6971 7.291 2.6651 7.291H7.5791C7.79014 7.29106 7.9958 7.22434 8.16662 7.1004C8.33744 6.97646 8.46467 6.80165 8.5301 6.601L10.0491 1.927V1.927Z" stroke="white" stroke-width="2" stroke-linecap="round" stroke-linejoin="round"/>
</svg>
